<mxfile host="app.diagrams.net" modified="2023-07-21T17:49:23.989Z" agent="Mozilla/5.0 (Windows NT 10.0; Win64; x64) AppleWebKit/537.36 (KHTML, like Gecko) Chrome/114.0.0.0 Safari/537.36" etag="rSxm_iMXckoDM7Pg2gFs" version="21.6.3" type="device">
  <diagram name="Page-1" id="T2Ooaq48z50u9Yo6Ut8c">
    <mxGraphModel dx="472" dy="754" grid="1" gridSize="10" guides="1" tooltips="1" connect="1" arrows="1" fold="1" page="1" pageScale="1" pageWidth="850" pageHeight="1100" math="0" shadow="0">
      <root>
        <mxCell id="0" />
        <mxCell id="1" parent="0" />
        <mxCell id="uhNIHs1jlV2ZBiW_gIT6-3" value="" style="edgeStyle=orthogonalEdgeStyle;rounded=0;orthogonalLoop=1;jettySize=auto;html=1;" edge="1" parent="1" source="uhNIHs1jlV2ZBiW_gIT6-1" target="uhNIHs1jlV2ZBiW_gIT6-2">
          <mxGeometry relative="1" as="geometry" />
        </mxCell>
        <mxCell id="uhNIHs1jlV2ZBiW_gIT6-1" value="start" style="rounded=1;whiteSpace=wrap;html=1;" vertex="1" parent="1">
          <mxGeometry x="120" y="60" width="120" height="60" as="geometry" />
        </mxCell>
        <mxCell id="uhNIHs1jlV2ZBiW_gIT6-5" value="" style="edgeStyle=orthogonalEdgeStyle;rounded=0;orthogonalLoop=1;jettySize=auto;html=1;" edge="1" parent="1" source="uhNIHs1jlV2ZBiW_gIT6-2" target="uhNIHs1jlV2ZBiW_gIT6-4">
          <mxGeometry relative="1" as="geometry" />
        </mxCell>
        <mxCell id="uhNIHs1jlV2ZBiW_gIT6-2" value="&quot;Idan Perez&quot;" style="shape=document;whiteSpace=wrap;html=1;boundedLbl=1;" vertex="1" parent="1">
          <mxGeometry x="120" y="160" width="120" height="80" as="geometry" />
        </mxCell>
        <mxCell id="uhNIHs1jlV2ZBiW_gIT6-4" value="End" style="rounded=1;whiteSpace=wrap;html=1;" vertex="1" parent="1">
          <mxGeometry x="120" y="280" width="120" height="60" as="geometry" />
        </mxCell>
      </root>
    </mxGraphModel>
  </diagram>
</mxfile>
